<?xml version="1.0" encoding="utf-8" standalone="no"?>
<!DOCTYPE svg PUBLIC "-//W3C//DTD SVG 1.1//EN"
  "http://www.w3.org/Graphics/SVG/1.1/DTD/svg11.dtd">
<svg xmlns:xlink="http://www.w3.org/1999/xlink" width="648pt" height="432pt" viewBox="0 0 648 432" xmlns="http://www.w3.org/2000/svg" version="1.1">
 <metadata>
  <rdf:RDF xmlns:dc="http://purl.org/dc/elements/1.1/" xmlns:cc="http://creativecommons.org/ns#" xmlns:rdf="http://www.w3.org/1999/02/22-rdf-syntax-ns#">
   <cc:Work>
    <dc:type rdf:resource="http://purl.org/dc/dcmitype/StillImage"/>
    <dc:date>2025-07-25T12:38:56.366492</dc:date>
    <dc:format>image/svg+xml</dc:format>
    <dc:creator>
     <cc:Agent>
      <dc:title>Matplotlib v3.10.1, https://matplotlib.org/</dc:title>
     </cc:Agent>
    </dc:creator>
   </cc:Work>
  </rdf:RDF>
 </metadata>
 <defs>
  <style type="text/css">*{stroke-linejoin: round; stroke-linecap: butt}</style>
 </defs>
 <g id="figure_1">
  <g id="patch_1">
   <path d="M 0 432 
L 648 432 
L 648 0 
L 0 0 
z
" style="fill: #ffffff"/>
  </g>
  <g id="axes_1">
   <g id="patch_2">
    <path d="M 81 384.48 
L 583.2 384.48 
L 583.2 51.84 
L 81 51.84 
z
" style="fill: #ffffff"/>
   </g>
   <g id="patch_3">
    <path d="M 97.74 242.086572 
L 231.66 242.086572 
L 231.66 209.624086 
L 97.74 209.624086 
L 97.74 242.086572 
z
" clip-path="url(#p68d6a5ee40)" style="fill: #72b6a1; stroke: #595959; stroke-width: 1.5; stroke-linejoin: miter"/>
   </g>
   <g id="patch_4">
    <path d="M 265.14 354.018628 
L 399.06 354.018628 
L 399.06 324.688486 
L 265.14 324.688486 
L 265.14 354.018628 
z
" clip-path="url(#p68d6a5ee40)" style="fill: #e99675; stroke: #595959; stroke-width: 1.5; stroke-linejoin: miter"/>
   </g>
   <g id="patch_5">
    <path d="M 432.54 257.510086 
L 566.46 257.510086 
L 566.46 239.460769 
L 432.54 239.460769 
L 432.54 257.510086 
z
" clip-path="url(#p68d6a5ee40)" style="fill: #95a3c3; stroke: #595959; stroke-width: 1.5; stroke-linejoin: miter"/>
   </g>
   <g id="matplotlib.axis_1">
    <g id="xtick_1">
     <g id="line2d_1">
      <defs>
       <path id="mb7ac9f88c1" d="M 0 0 
L 0 3.5 
" style="stroke: #000000; stroke-width: 0.8"/>
      </defs>
      <g>
       <use xlink:href="#mb7ac9f88c1" x="164.7" y="384.48" style="stroke: #000000; stroke-width: 0.8"/>
      </g>
     </g>
     <g id="text_1">
      <!-- $\frac{b}{\alpha} + \tau$ -->
      <g transform="translate(153.246734 400.245545) scale(0.1 -0.1)">
       <defs>
        <path id="CMMI12-62" d="M 1478 4257 
C 1485 4283 1498 4321 1498 4352 
C 1498 4416 1434 4416 1421 4416 
C 1414 4416 1184 4393 1069 4377 
C 960 4377 864 4358 749 4358 
C 595 4345 550 4339 550 4224 
C 550 4160 614 4160 678 4160 
C 1005 4160 1005 4103 1005 4040 
C 1005 3996 954 3811 928 3696 
L 774 3085 
C 710 2831 346 1387 320 1272 
C 288 1114 288 1005 288 922 
C 288 274 653 -64 1069 -64 
C 1811 -64 2579 888 2579 1814 
C 2579 2401 2246 2816 1766 2816 
C 1434 2816 1133 2542 1011 2414 
L 1478 4257 
z
M 1075 64 
C 870 64 646 217 646 715 
C 646 926 666 1047 781 1494 
C 800 1577 902 1986 928 2069 
C 941 2120 1318 2689 1754 2689 
C 2035 2689 2163 2408 2163 2076 
C 2163 1769 1984 1047 1824 715 
C 1664 370 1370 64 1075 64 
z
" transform="scale(0.015625)"/>
        <path id="CMMI12-b" d="M 2963 1616 
C 2963 2235 2611 2815 1933 2815 
C 1094 2815 256 1902 256 996 
C 256 441 602 -64 1254 -64 
C 1651 -64 2125 89 2579 472 
C 2669 115 2867 -64 3142 -64 
C 3488 -64 3661 294 3661 377 
C 3661 434 3616 434 3597 434 
C 3546 434 3539 415 3520 364 
C 3462 204 3315 64 3162 64 
C 2963 64 2963 472 2963 862 
C 3616 1641 3770 2446 3770 2452 
C 3770 2510 3718 2510 3699 2510 
C 3642 2510 3635 2491 3610 2376 
C 3526 2095 3360 1597 2963 1073 
L 2963 1616 
z
M 2560 626 
C 1997 121 1491 64 1267 64 
C 813 64 685 466 685 766 
C 685 1040 826 1692 1024 2044 
C 1286 2491 1645 2688 1933 2688 
C 2554 2688 2554 1877 2554 1341 
C 2554 1182 2547 1016 2547 856 
C 2547 728 2554 696 2560 626 
z
" transform="scale(0.015625)"/>
        <path id="CMR17-2b" d="M 2413 1472 
L 4109 1472 
C 4198 1472 4307 1472 4307 1580 
C 4307 1695 4205 1695 4109 1695 
L 2413 1695 
L 2413 3386 
C 2413 3475 2413 3584 2304 3584 
C 2189 3584 2189 3482 2189 3386 
L 2189 1695 
L 493 1695 
C 403 1695 294 1695 294 1587 
C 294 1472 397 1472 493 1472 
L 2189 1472 
L 2189 -218 
C 2189 -307 2189 -416 2298 -416 
C 2413 -416 2413 -314 2413 -218 
L 2413 1472 
z
" transform="scale(0.015625)"/>
        <path id="CMMI12-1c" d="M 1837 2408 
L 2899 2408 
C 2982 2408 3194 2408 3194 2612 
C 3194 2752 3072 2752 2957 2752 
L 1197 2752 
C 1050 2752 832 2752 538 2440 
C 371 2255 166 1917 166 1879 
C 166 1841 198 1828 237 1828 
C 282 1828 288 1847 320 1885 
C 653 2408 986 2408 1146 2408 
L 1677 2408 
L 1011 223 
C 979 127 979 114 979 95 
C 979 25 1024 -64 1152 -64 
C 1350 -64 1382 108 1402 203 
L 1837 2408 
z
" transform="scale(0.015625)"/>
       </defs>
       <use xlink:href="#CMMI12-62" transform="translate(7.421769 39.226102) scale(0.697382)"/>
       <use xlink:href="#CMMI12-b" transform="translate(0 -34.355253) scale(0.697382)"/>
       <use xlink:href="#CMR17-2b" transform="translate(67.211245 0) scale(0.996264)"/>
       <use xlink:href="#CMMI12-1c" transform="translate(161.065241 0) scale(0.996264)"/>
       <path d="M 0 22.914133 
L 43.876524 22.914133 
L 43.876524 26.899083 
L 0 26.899083 
L 0 22.914133 
z
"/>
      </g>
     </g>
    </g>
    <g id="xtick_2">
     <g id="line2d_2">
      <g>
       <use xlink:href="#mb7ac9f88c1" x="332.1" y="384.48" style="stroke: #000000; stroke-width: 0.8"/>
      </g>
     </g>
     <g id="text_2">
      <!-- $\frac{l_1}{v_T}$ -->
      <g transform="translate(327.352993 400.407596) scale(0.1 -0.1)">
       <defs>
        <path id="CMMI12-6c" d="M 1626 4257 
C 1632 4282 1645 4320 1645 4352 
C 1645 4416 1581 4416 1568 4416 
C 1562 4416 1331 4393 1216 4377 
C 1107 4377 1011 4358 896 4358 
C 742 4345 698 4339 698 4224 
C 698 4160 762 4160 826 4160 
C 1152 4160 1152 4102 1152 4039 
C 1152 4014 1152 4001 1120 3887 
L 326 731 
C 307 661 294 610 294 509 
C 294 191 531 -64 858 -64 
C 1069 -64 1210 76 1312 274 
C 1421 483 1510 884 1510 909 
C 1510 941 1485 967 1446 967 
C 1389 967 1382 935 1357 840 
C 1242 401 1126 64 870 64 
C 678 64 678 267 678 357 
C 678 382 678 515 723 694 
L 1626 4257 
z
" transform="scale(0.015625)"/>
        <path id="CMR17-31" d="M 1702 4058 
C 1702 4192 1696 4192 1606 4192 
C 1357 3916 979 3827 621 3827 
C 602 3827 570 3827 563 3808 
C 557 3795 557 3782 557 3648 
C 755 3648 1088 3686 1344 3839 
L 1344 461 
C 1344 236 1331 160 781 160 
L 589 160 
L 589 0 
C 896 0 1216 0 1523 0 
C 1830 0 2150 0 2458 0 
L 2458 160 
L 2266 160 
C 1715 160 1702 230 1702 458 
L 1702 4058 
z
" transform="scale(0.015625)"/>
        <path id="CMMI12-76" d="M 2925 2389 
C 2925 2791 2720 2816 2669 2816 
C 2515 2816 2374 2663 2374 2535 
C 2374 2459 2419 2414 2445 2389 
C 2509 2331 2675 2159 2675 1827 
C 2675 1558 2291 64 1523 64 
C 1133 64 1056 390 1056 626 
C 1056 945 1203 1392 1376 1852 
C 1478 2114 1504 2178 1504 2305 
C 1504 2574 1312 2816 998 2816 
C 410 2816 173 1890 173 1839 
C 173 1814 198 1782 243 1782 
C 301 1782 307 1807 333 1897 
C 486 2446 736 2689 979 2689 
C 1037 2689 1146 2689 1146 2478 
C 1146 2312 1075 2127 979 1884 
C 672 1067 672 869 672 715 
C 672 575 691 313 890 134 
C 1120 -64 1440 -64 1498 -64 
C 2560 -64 2925 2024 2925 2389 
z
" transform="scale(0.015625)"/>
        <path id="CMMI12-54" d="M 2669 3910 
C 2707 4064 2720 4121 2816 4147 
C 2867 4160 3078 4160 3213 4160 
C 3853 4160 4154 4134 4154 3634 
C 4154 3537 4128 3295 4090 3057 
L 4083 2980 
C 4083 2954 4109 2916 4147 2916 
C 4211 2916 4211 2948 4230 3050 
L 4416 4184 
C 4429 4243 4429 4256 4429 4275 
C 4429 4345 4390 4345 4262 4345 
L 762 4345 
C 614 4345 608 4339 570 4224 
L 179 3070 
C 173 3056 154 2986 154 2980 
C 154 2948 179 2916 218 2916 
C 269 2916 282 2941 307 3024 
C 576 3801 710 4160 1562 4160 
L 1990 4160 
C 2144 4160 2208 4160 2208 4089 
C 2208 4069 2208 4057 2176 3941 
L 1318 499 
C 1254 249 1242 185 563 185 
C 403 185 358 185 358 64 
C 358 0 429 0 461 0 
C 621 0 787 0 947 0 
L 1946 0 
C 2106 0 2278 0 2438 0 
C 2509 0 2573 0 2573 121 
C 2573 185 2528 185 2362 185 
C 1786 185 1786 243 1786 339 
C 1786 346 1786 391 1811 494 
L 2669 3910 
z
" transform="scale(0.015625)"/>
       </defs>
       <use xlink:href="#CMMI12-6c" transform="translate(12.594357 41.344728) scale(0.697382)"/>
       <use xlink:href="#CMR17-31" transform="translate(32.934479 30.884032) scale(0.498132)"/>
       <use xlink:href="#CMMI12-76" transform="translate(0 -34.355253) scale(0.697382)"/>
       <use xlink:href="#CMMI12-54" transform="translate(33.012251 -44.815949) scale(0.498132)"/>
       <path d="M 0 22.914133 
L 68.872192 22.914133 
L 68.872192 26.899083 
L 0 26.899083 
L 0 22.914133 
z
"/>
      </g>
     </g>
    </g>
    <g id="xtick_3">
     <g id="line2d_3">
      <g>
       <use xlink:href="#mb7ac9f88c1" x="499.5" y="384.48" style="stroke: #000000; stroke-width: 0.8"/>
      </g>
     </g>
     <g id="text_3">
      <!-- $\frac{l-l_1}{v_R}$ -->
      <g transform="translate(491.902871 400.407596) scale(0.1 -0.1)">
       <defs>
        <path id="CMSY10-0" d="M 4218 1472 
C 4326 1472 4442 1472 4442 1600 
C 4442 1728 4326 1728 4218 1728 
L 755 1728 
C 646 1728 531 1728 531 1600 
C 531 1472 646 1472 755 1472 
L 4218 1472 
z
" transform="scale(0.015625)"/>
        <path id="CMMI12-52" d="M 2355 3924 
C 2413 4160 2438 4160 2688 4160 
L 3149 4160 
C 3699 4160 4109 3995 4109 3499 
C 4109 3175 3942 2240 2656 2240 
L 1933 2240 
L 2355 3924 
z
M 3245 2169 
C 4038 2341 4659 2851 4659 3398 
C 4659 3894 4154 4352 3264 4352 
L 1530 4352 
C 1402 4352 1344 4352 1344 4226 
C 1344 4160 1389 4160 1510 4160 
C 1894 4160 1894 4112 1894 4045 
C 1894 4033 1894 3994 1869 3899 
L 1005 479 
C 947 256 934 192 493 192 
C 346 192 301 192 301 71 
C 301 7 371 7 390 7 
C 506 7 640 7 762 7 
L 1517 7 
C 1632 7 1766 7 1882 7 
C 1933 7 2003 7 2003 128 
C 2003 192 1946 192 1850 192 
C 1459 192 1459 243 1459 306 
C 1459 313 1459 357 1472 407 
L 1901 2112 
L 2669 2112 
C 3277 2112 3392 1731 3392 1522 
C 3392 1427 3328 1179 3283 1014 
C 3213 723 3194 652 3194 532 
C 3194 82 3565 -128 3994 -128 
C 4512 -128 4736 501 4736 591 
C 4736 635 4704 654 4666 654 
C 4614 654 4602 616 4589 565 
C 4435 114 4173 0 4013 0 
C 3853 0 3750 70 3750 356 
C 3750 509 3827 1088 3834 1120 
C 3866 1355 3866 1380 3866 1432 
C 3866 1896 3488 2093 3245 2169 
z
" transform="scale(0.015625)"/>
       </defs>
       <use xlink:href="#CMMI12-6c" transform="translate(0 41.344728) scale(0.697382)"/>
       <use xlink:href="#CMSY10-0" transform="translate(21.873784 41.344728) scale(0.697382)"/>
       <use xlink:href="#CMMI12-6c" transform="translate(76.114777 41.344728) scale(0.697382)"/>
       <use xlink:href="#CMR17-31" transform="translate(96.454899 30.884032) scale(0.498132)"/>
       <use xlink:href="#CMMI12-76" transform="translate(24.37621 -34.355253) scale(0.697382)"/>
       <use xlink:href="#CMMI12-52" transform="translate(57.388461 -44.815949) scale(0.498132)"/>
       <path d="M 0 22.914133 
L 119.798269 22.914133 
L 119.798269 26.899083 
L 0 26.899083 
L 0 22.914133 
z
"/>
      </g>
     </g>
    </g>
    <g id="text_4">
     <!-- Metric Type -->
     <g transform="translate(302.440737 417.1471) scale(0.12 -0.12)">
      <defs>
       <path id="CMSS17-4d" d="M 3194 2371 
L 2886 1473 
C 2835 1307 2662 791 2624 587 
L 2618 587 
C 2598 715 2560 849 2458 1174 
C 2400 1365 2336 1562 2272 1741 
L 1325 4416 
L 576 4416 
L 576 0 
L 1075 0 
L 1075 3900 
L 1082 3900 
C 1082 3894 1139 3613 1530 2499 
L 2374 96 
L 2848 96 
L 3610 2231 
C 3661 2378 3821 2843 3891 3066 
C 3955 3257 4115 3728 4154 3913 
L 4160 3913 
L 4160 0 
L 4666 0 
L 4666 4416 
L 3923 4416 
L 3194 2371 
z
" transform="scale(0.015625)"/>
       <path id="CMSS17-65" d="M 2502 1377 
C 2502 1590 2490 2003 2285 2345 
C 2061 2713 1696 2816 1421 2816 
C 755 2816 192 2188 192 1375 
C 192 582 774 -64 1510 -64 
C 1798 -64 2150 19 2470 248 
C 2470 274 2458 414 2451 420 
C 2451 433 2432 630 2432 656 
C 2125 407 1773 325 1517 325 
C 1107 325 666 667 646 1377 
L 2502 1377 
z
M 698 1728 
C 781 2084 1062 2421 1421 2421 
C 1517 2421 1965 2421 2080 1728 
L 698 1728 
z
" transform="scale(0.015625)"/>
       <path id="CMSS17-74" d="M 1069 2368 
L 1901 2368 
L 1901 2737 
L 1069 2737 
L 1069 3520 
L 614 3520 
L 614 2737 
L 109 2737 
L 109 2368 
L 602 2368 
L 602 749 
C 602 384 685 -64 1107 -64 
C 1427 -64 1722 25 2003 172 
L 1901 548 
C 1747 414 1562 337 1363 337 
C 1082 337 1069 696 1069 856 
L 1069 2368 
z
" transform="scale(0.015625)"/>
       <path id="CMSS17-72" d="M 954 1363 
C 954 1965 1395 2368 1958 2368 
L 1958 2789 
C 1549 2789 1165 2585 934 2253 
L 934 2758 
L 480 2758 
L 480 0 
L 954 0 
L 954 1363 
z
" transform="scale(0.015625)"/>
       <path id="CMSS17-69" d="M 979 4183 
L 442 4183 
L 442 3648 
L 979 3648 
L 979 4183 
z
M 947 2739 
L 474 2739 
L 474 0 
L 947 0 
L 947 2739 
z
" transform="scale(0.015625)"/>
       <path id="CMSS17-63" d="M 2464 2541 
C 2464 2585 2170 2714 2093 2739 
C 1882 2816 1613 2816 1542 2816 
C 710 2816 211 2093 211 1363 
C 211 595 768 -64 1517 -64 
C 1946 -64 2253 76 2502 242 
L 2464 664 
C 2189 453 1869 337 1523 337 
C 1024 337 698 774 698 1369 
C 698 1831 909 2414 1549 2414 
C 1901 2414 2099 2343 2394 2145 
L 2464 2541 
z
" transform="scale(0.015625)"/>
       <path id="CMSS17-54" d="M 2317 3968 
L 2848 3968 
C 2925 3968 3002 3968 3078 3968 
L 3878 3968 
L 3878 4376 
L 218 4376 
L 218 3968 
L 1018 3968 
C 1094 3968 1171 3968 1248 3968 
L 1779 3968 
L 1779 -32 
L 2317 -32 
L 2317 3968 
z
" transform="scale(0.015625)"/>
       <path id="CMSS17-79" d="M 2675 2752 
L 2176 2752 
C 1632 1294 1446 702 1434 383 
L 1427 383 
C 1408 696 1126 1460 902 2007 
L 602 2752 
L 83 2752 
L 1216 13 
C 1146 -178 1043 -465 1011 -529 
C 870 -885 774 -885 672 -885 
C 646 -885 442 -885 211 -809 
L 250 -1229 
C 410 -1261 570 -1280 685 -1280 
C 845 -1280 1165 -1280 1459 -497 
L 2675 2752 
z
" transform="scale(0.015625)"/>
       <path id="CMSS17-70" d="M 966 333 
C 1178 129 1466 -5 1773 -5 
C 2368 -5 2880 603 2880 1412 
C 2880 2159 2496 2816 1946 2816 
C 1626 2816 1242 2702 954 2472 
L 954 2765 
L 480 2765 
L 480 -1216 
L 966 -1216 
L 966 333 
z
M 966 2100 
C 1018 2176 1235 2415 1587 2415 
C 2035 2415 2394 1960 2394 1412 
C 2394 787 1958 384 1530 384 
C 1402 384 1267 415 1139 523 
C 966 674 966 768 966 857 
L 966 2100 
z
" transform="scale(0.015625)"/>
      </defs>
      <use xlink:href="#CMSS17-4d" transform="scale(0.996264)"/>
      <use xlink:href="#CMSS17-65" transform="translate(81.67603 0) scale(0.996264)"/>
      <use xlink:href="#CMSS17-74" transform="translate(123.314852 0) scale(0.996264)"/>
      <use xlink:href="#CMSS17-72" transform="translate(157.146419 0) scale(0.996264)"/>
      <use xlink:href="#CMSS17-69" transform="translate(189.056191 0) scale(0.996264)"/>
      <use xlink:href="#CMSS17-63" transform="translate(211.236914 0) scale(0.996264)"/>
      <use xlink:href="#CMSS17-54" transform="translate(284.104849 0) scale(0.996264)"/>
      <use xlink:href="#CMSS17-79" transform="translate(340.117048 0) scale(0.996264)"/>
      <use xlink:href="#CMSS17-70" transform="translate(383.117189 0) scale(0.996264)"/>
      <use xlink:href="#CMSS17-65" transform="translate(433.924571 0) scale(0.996264)"/>
     </g>
    </g>
   </g>
   <g id="matplotlib.axis_2">
    <g id="ytick_1">
     <g id="line2d_4">
      <defs>
       <path id="m1e55ee87e4" d="M 0 0 
L -3.5 0 
" style="stroke: #000000; stroke-width: 0.8"/>
      </defs>
      <g>
       <use xlink:href="#m1e55ee87e4" x="81" y="316.323701" style="stroke: #000000; stroke-width: 0.8"/>
      </g>
     </g>
     <g id="text_5">
      <!-- $\mathdefault{5}$ -->
      <g transform="translate(69.018665 319.78295) scale(0.1 -0.1)">
       <defs>
        <path id="CMR17-35" d="M 730 3692 
C 794 3666 1056 3584 1325 3584 
C 1920 3584 2246 3911 2432 4100 
C 2432 4157 2432 4192 2394 4192 
C 2387 4192 2374 4192 2323 4163 
C 2099 4058 1837 3973 1517 3973 
C 1325 3973 1037 3999 723 4139 
C 653 4171 640 4171 634 4171 
C 602 4171 595 4164 595 4037 
L 595 2203 
C 595 2089 595 2057 659 2057 
C 691 2057 704 2070 736 2114 
C 941 2401 1222 2522 1542 2522 
C 1766 2522 2246 2382 2246 1289 
C 2246 1085 2246 715 2054 421 
C 1894 159 1645 25 1370 25 
C 947 25 518 320 403 814 
C 429 807 480 795 506 795 
C 589 795 749 840 749 1038 
C 749 1210 627 1280 506 1280 
C 358 1280 262 1190 262 1011 
C 262 454 704 -128 1382 -128 
C 2042 -128 2669 440 2669 1264 
C 2669 2030 2170 2624 1549 2624 
C 1222 2624 947 2503 730 2274 
L 730 3692 
z
" transform="scale(0.015625)"/>
       </defs>
       <use xlink:href="#CMR17-35" transform="scale(0.996264)"/>
      </g>
     </g>
    </g>
    <g id="ytick_2">
     <g id="line2d_5">
      <g>
       <use xlink:href="#m1e55ee87e4" x="81" y="245.134037" style="stroke: #000000; stroke-width: 0.8"/>
      </g>
     </g>
     <g id="text_6">
      <!-- $\mathdefault{10}$ -->
      <g transform="translate(64.037329 248.593286) scale(0.1 -0.1)">
       <defs>
        <path id="CMR17-30" d="M 2688 2025 
C 2688 2416 2682 3080 2413 3591 
C 2176 4039 1798 4198 1466 4198 
C 1158 4198 768 4058 525 3597 
C 269 3118 243 2524 243 2025 
C 243 1661 250 1106 448 619 
C 723 -39 1216 -128 1466 -128 
C 1760 -128 2208 -7 2470 600 
C 2662 1042 2688 1559 2688 2025 
z
M 1466 -26 
C 1056 -26 813 325 723 812 
C 653 1188 653 1738 653 2096 
C 653 2588 653 2997 736 3387 
C 858 3929 1216 4096 1466 4096 
C 1728 4096 2067 3923 2189 3400 
C 2272 3036 2278 2607 2278 2096 
C 2278 1680 2278 1169 2202 792 
C 2067 95 1690 -26 1466 -26 
z
" transform="scale(0.015625)"/>
       </defs>
       <use xlink:href="#CMR17-31" transform="scale(0.996264)"/>
       <use xlink:href="#CMR17-30" transform="translate(45.690477 0) scale(0.996264)"/>
      </g>
     </g>
    </g>
    <g id="ytick_3">
     <g id="line2d_6">
      <g>
       <use xlink:href="#m1e55ee87e4" x="81" y="173.944374" style="stroke: #000000; stroke-width: 0.8"/>
      </g>
     </g>
     <g id="text_7">
      <!-- $\mathdefault{15}$ -->
      <g transform="translate(64.037329 177.403623) scale(0.1 -0.1)">
       <use xlink:href="#CMR17-31" transform="scale(0.996264)"/>
       <use xlink:href="#CMR17-35" transform="translate(45.690477 0) scale(0.996264)"/>
      </g>
     </g>
    </g>
    <g id="ytick_4">
     <g id="line2d_7">
      <g>
       <use xlink:href="#m1e55ee87e4" x="81" y="102.75471" style="stroke: #000000; stroke-width: 0.8"/>
      </g>
     </g>
     <g id="text_8">
      <!-- $\mathdefault{20}$ -->
      <g transform="translate(64.037329 106.21396) scale(0.1 -0.1)">
       <defs>
        <path id="CMR17-32" d="M 2669 989 
L 2554 989 
C 2490 536 2438 459 2413 420 
C 2381 369 1920 369 1830 369 
L 602 369 
C 832 619 1280 1072 1824 1597 
C 2214 1967 2669 2402 2669 3035 
C 2669 3790 2067 4224 1395 4224 
C 691 4224 262 3604 262 3030 
C 262 2780 448 2748 525 2748 
C 589 2748 781 2787 781 3010 
C 781 3207 614 3264 525 3264 
C 486 3264 448 3258 422 3245 
C 544 3790 915 4058 1306 4058 
C 1862 4058 2227 3617 2227 3035 
C 2227 2479 1901 2000 1536 1584 
L 262 146 
L 262 0 
L 2515 0 
L 2669 989 
z
" transform="scale(0.015625)"/>
       </defs>
       <use xlink:href="#CMR17-32" transform="scale(0.996264)"/>
       <use xlink:href="#CMR17-30" transform="translate(45.690477 0) scale(0.996264)"/>
      </g>
     </g>
    </g>
    <g id="text_9">
     <!-- Time (s) -->
     <g transform="translate(57.048537 239.5054) rotate(-90) scale(0.12 -0.12)">
      <defs>
       <path id="CMSS17-6d" d="M 4288 1877 
C 4288 2308 4179 2816 3462 2816 
C 2982 2816 2694 2516 2566 2331 
C 2451 2670 2182 2816 1798 2816 
C 1363 2816 1088 2568 941 2389 
L 941 2758 
L 474 2758 
L 474 0 
L 960 0 
L 960 1559 
C 960 1939 1101 2428 1555 2428 
C 2138 2428 2138 2016 2138 1829 
L 2138 0 
L 2624 0 
L 2624 1559 
C 2624 1939 2765 2428 3219 2428 
C 3802 2428 3802 2016 3802 1829 
L 3802 0 
L 4288 0 
L 4288 1877 
z
" transform="scale(0.015625)"/>
       <path id="CMSS17-28" d="M 1613 4768 
C 1267 4417 474 3601 474 1588 
C 474 -433 1267 -1243 1613 -1600 
L 2003 -1600 
C 1216 -784 960 357 960 1581 
C 960 2798 1203 3946 2003 4768 
L 1613 4768 
z
" transform="scale(0.015625)"/>
       <path id="CMSS17-73" d="M 2061 2627 
C 1683 2807 1389 2807 1197 2807 
C 742 2807 198 2648 198 2003 
C 198 1359 902 1218 1094 1179 
C 1389 1122 1715 1058 1715 740 
C 1715 337 1254 337 1171 337 
C 915 337 563 407 243 638 
L 166 210 
C 531 0 883 -64 1178 -64 
C 1965 -64 2163 416 2163 781 
C 2163 1094 1984 1305 1862 1401 
C 1651 1568 1574 1587 1050 1696 
C 960 1709 646 1779 646 2066 
C 646 2432 1050 2432 1139 2432 
C 1555 2432 1811 2303 1984 2208 
L 2061 2627 
z
" transform="scale(0.015625)"/>
       <path id="CMSS17-29" d="M 723 -1600 
C 1069 -1249 1862 -433 1862 1581 
C 1862 3601 1069 4411 723 4768 
L 333 4768 
C 1120 3952 1376 2811 1376 1588 
C 1376 370 1133 -778 333 -1600 
L 723 -1600 
z
" transform="scale(0.015625)"/>
      </defs>
      <use xlink:href="#CMSS17-54" transform="scale(0.996264)"/>
      <use xlink:href="#CMSS17-69" transform="translate(63.819454 0) scale(0.996264)"/>
      <use xlink:href="#CMSS17-6d" transform="translate(86.000177 0) scale(0.996264)"/>
      <use xlink:href="#CMSS17-65" transform="translate(160.229431 0) scale(0.996264)"/>
      <use xlink:href="#CMSS17-28" transform="translate(233.097366 0) scale(0.996264)"/>
      <use xlink:href="#CMSS17-73" transform="translate(269.53128 0) scale(0.996264)"/>
      <use xlink:href="#CMSS17-29" transform="translate(305.444822 0) scale(0.996264)"/>
     </g>
    </g>
   </g>
   <g id="line2d_8">
    <path d="M 164.7 242.086572 
L 164.7 273.410024 
" clip-path="url(#p68d6a5ee40)" style="fill: none; stroke: #595959; stroke-width: 1.5; stroke-linecap: square"/>
   </g>
   <g id="line2d_9">
    <path d="M 164.7 209.624086 
L 164.7 168.903598 
" clip-path="url(#p68d6a5ee40)" style="fill: none; stroke: #595959; stroke-width: 1.5; stroke-linecap: square"/>
   </g>
   <g id="line2d_10">
    <path d="M 131.22 273.410024 
L 198.18 273.410024 
" clip-path="url(#p68d6a5ee40)" style="fill: none; stroke: #595959; stroke-width: 1.5; stroke-linecap: square"/>
   </g>
   <g id="line2d_11">
    <path d="M 131.22 168.903598 
L 198.18 168.903598 
" clip-path="url(#p68d6a5ee40)" style="fill: none; stroke: #595959; stroke-width: 1.5; stroke-linecap: square"/>
   </g>
   <g id="line2d_12">
    <defs>
     <path id="m3920715ede" d="M -0 3.535534 
L 2.12132 0 
L -0 -3.535534 
L -2.12132 -0 
z
" style="stroke: #595959; stroke-linejoin: miter"/>
    </defs>
    <g clip-path="url(#p68d6a5ee40)">
     <use xlink:href="#m3920715ede" x="164.7" y="144.414354" style="fill: #595959; stroke: #595959; stroke-linejoin: miter"/>
     <use xlink:href="#m3920715ede" x="164.7" y="133.593525" style="fill: #595959; stroke: #595959; stroke-linejoin: miter"/>
     <use xlink:href="#m3920715ede" x="164.7" y="128.183111" style="fill: #595959; stroke: #595959; stroke-linejoin: miter"/>
     <use xlink:href="#m3920715ede" x="164.7" y="158.367528" style="fill: #595959; stroke: #595959; stroke-linejoin: miter"/>
     <use xlink:href="#m3920715ede" x="164.7" y="153.241872" style="fill: #595959; stroke: #595959; stroke-linejoin: miter"/>
     <use xlink:href="#m3920715ede" x="164.7" y="131.600214" style="fill: #595959; stroke: #595959; stroke-linejoin: miter"/>
     <use xlink:href="#m3920715ede" x="164.7" y="141.851526" style="fill: #595959; stroke: #595959; stroke-linejoin: miter"/>
    </g>
   </g>
   <g id="line2d_13">
    <path d="M 332.1 354.018628 
L 332.1 369.36 
" clip-path="url(#p68d6a5ee40)" style="fill: none; stroke: #595959; stroke-width: 1.5; stroke-linecap: square"/>
   </g>
   <g id="line2d_14">
    <path d="M 332.1 324.688486 
L 332.1 315.006692 
" clip-path="url(#p68d6a5ee40)" style="fill: none; stroke: #595959; stroke-width: 1.5; stroke-linecap: square"/>
   </g>
   <g id="line2d_15">
    <path d="M 298.62 369.36 
L 365.58 369.36 
" clip-path="url(#p68d6a5ee40)" style="fill: none; stroke: #595959; stroke-width: 1.5; stroke-linecap: square"/>
   </g>
   <g id="line2d_16">
    <path d="M 298.62 315.006692 
L 365.58 315.006692 
" clip-path="url(#p68d6a5ee40)" style="fill: none; stroke: #595959; stroke-width: 1.5; stroke-linecap: square"/>
   </g>
   <g id="line2d_17"/>
   <g id="line2d_18">
    <path d="M 499.5 257.510086 
L 499.5 263.468114 
" clip-path="url(#p68d6a5ee40)" style="fill: none; stroke: #595959; stroke-width: 1.5; stroke-linecap: square"/>
   </g>
   <g id="line2d_19">
    <path d="M 499.5 239.460769 
L 499.5 230.019924 
" clip-path="url(#p68d6a5ee40)" style="fill: none; stroke: #595959; stroke-width: 1.5; stroke-linecap: square"/>
   </g>
   <g id="line2d_20">
    <path d="M 466.02 263.468114 
L 532.98 263.468114 
" clip-path="url(#p68d6a5ee40)" style="fill: none; stroke: #595959; stroke-width: 1.5; stroke-linecap: square"/>
   </g>
   <g id="line2d_21">
    <path d="M 466.02 230.019924 
L 532.98 230.019924 
" clip-path="url(#p68d6a5ee40)" style="fill: none; stroke: #595959; stroke-width: 1.5; stroke-linecap: square"/>
   </g>
   <g id="line2d_22"/>
   <g id="line2d_23">
    <path d="M 164.7 113.945178 
L 164.7 109.673798 
L 332.1 109.673798 
L 332.1 113.945178 
" clip-path="url(#p68d6a5ee40)" style="fill: none; stroke: #000000; stroke-width: 1.5; stroke-linecap: square"/>
   </g>
   <g id="line2d_24">
    <path d="M 164.7 71.23138 
L 164.7 66.96 
L 499.5 66.96 
L 499.5 71.23138 
" clip-path="url(#p68d6a5ee40)" style="fill: none; stroke: #000000; stroke-width: 1.5; stroke-linecap: square"/>
   </g>
   <g id="line2d_25">
    <path d="M 97.74 224.431536 
L 231.66 224.431536 
" clip-path="url(#p68d6a5ee40)" style="fill: none; stroke: #595959; stroke-width: 1.5"/>
   </g>
   <g id="line2d_26">
    <path d="M 265.14 341.95198 
L 399.06 341.95198 
" clip-path="url(#p68d6a5ee40)" style="fill: none; stroke: #595959; stroke-width: 1.5"/>
   </g>
   <g id="line2d_27">
    <path d="M 432.54 246.886398 
L 566.46 246.886398 
" clip-path="url(#p68d6a5ee40)" style="fill: none; stroke: #595959; stroke-width: 1.5"/>
   </g>
   <g id="patch_6">
    <path d="M 81 384.48 
L 81 51.84 
" style="fill: none; stroke: #000000; stroke-width: 0.8; stroke-linejoin: miter; stroke-linecap: square"/>
   </g>
   <g id="patch_7">
    <path d="M 583.2 384.48 
L 583.2 51.84 
" style="fill: none; stroke: #000000; stroke-width: 0.8; stroke-linejoin: miter; stroke-linecap: square"/>
   </g>
   <g id="patch_8">
    <path d="M 81 384.48 
L 583.2 384.48 
" style="fill: none; stroke: #000000; stroke-width: 0.8; stroke-linejoin: miter; stroke-linecap: square"/>
   </g>
   <g id="patch_9">
    <path d="M 81 51.84 
L 583.2 51.84 
" style="fill: none; stroke: #000000; stroke-width: 0.8; stroke-linejoin: miter; stroke-linecap: square"/>
   </g>
   <g id="text_10">
    <!-- $\frac{b}{\alpha} + \tau &gt; \frac{l_1}{v_T}$ -->
    <g transform="translate(224.396408 93.067541) scale(0.1 -0.1)">
     <defs>
      <path id="CMMI12-3e" d="M 4218 1449 
C 4339 1507 4346 1545 4346 1590 
C 4346 1628 4333 1673 4218 1725 
L 755 3322 
C 672 3360 659 3360 646 3360 
C 570 3360 525 3296 525 3245 
C 525 3168 576 3142 659 3104 
L 3949 1590 
L 653 65 
C 525 6 525 -39 525 -77 
C 525 -128 570 -192 646 -192 
C 659 -192 666 -185 755 -147 
L 4218 1449 
z
" transform="scale(0.015625)"/>
     </defs>
     <use xlink:href="#CMMI12-62" transform="translate(7.421769 39.226102) scale(0.697382)"/>
     <use xlink:href="#CMMI12-b" transform="translate(0 -34.355253) scale(0.697382)"/>
     <use xlink:href="#CMR17-2b" transform="translate(67.211245 0) scale(0.996264)"/>
     <use xlink:href="#CMMI12-1c" transform="translate(161.065241 0) scale(0.996264)"/>
     <use xlink:href="#CMMI12-3e" transform="translate(242.230415 0) scale(0.996264)"/>
     <use xlink:href="#CMMI12-6c" transform="translate(359.56639 41.344728) scale(0.697382)"/>
     <use xlink:href="#CMR17-31" transform="translate(379.906512 30.884032) scale(0.498132)"/>
     <use xlink:href="#CMMI12-76" transform="translate(346.972033 -34.355253) scale(0.697382)"/>
     <use xlink:href="#CMMI12-54" transform="translate(379.984284 -44.815949) scale(0.498132)"/>
     <path d="M 0 22.914133 
L 43.876524 22.914133 
L 43.876524 26.899083 
L 0 26.899083 
L 0 22.914133 
z
"/>
     <path d="M 346.972033 22.914133 
L 415.844225 22.914133 
L 415.844225 26.899083 
L 346.972033 26.899083 
L 346.972033 22.914133 
z
"/>
    </g>
    <!-- (p=0.000) -->
    <g transform="translate(226.731197 106.471241) scale(0.1 -0.1)">
     <defs>
      <path id="CMSS17-3d" d="M 4147 2017 
C 4243 2017 4339 2017 4339 2125 
C 4339 2240 4230 2240 4122 2240 
L 550 2240 
C 442 2240 333 2240 333 2125 
C 333 2017 429 2017 525 2017 
L 4147 2017 
z
M 4122 896 
C 4230 896 4339 896 4339 1011 
C 4339 1119 4243 1119 4147 1119 
L 525 1119 
C 429 1119 333 1119 333 1011 
C 333 896 442 896 550 896 
L 4122 896 
z
" transform="scale(0.015625)"/>
      <path id="CMSS17-30" d="M 2758 2044 
C 2758 2405 2752 3077 2490 3596 
C 2227 4096 1805 4229 1504 4229 
C 1069 4229 698 3975 506 3570 
C 301 3146 243 2709 243 2044 
C 243 1589 262 1031 493 543 
C 755 5 1197 -128 1498 -128 
C 1894 -128 2278 81 2496 518 
C 2720 974 2758 1474 2758 2044 
z
M 1498 261 
C 1011 261 864 811 819 995 
C 742 1310 730 1614 730 2114 
C 730 2506 730 2948 851 3297 
C 998 3701 1254 3840 1498 3840 
C 1971 3840 2125 3372 2176 3208 
C 2272 2873 2272 2481 2272 2114 
C 2272 1526 2272 261 1498 261 
z
" transform="scale(0.015625)"/>
      <path id="CMSS17-2e" d="M 1088 510 
L 576 510 
L 576 0 
L 1088 0 
L 1088 510 
z
" transform="scale(0.015625)"/>
     </defs>
     <use xlink:href="#CMSS17-28" transform="scale(0.996264)"/>
     <use xlink:href="#CMSS17-70" transform="translate(36.433914 0) scale(0.996264)"/>
     <use xlink:href="#CMSS17-3d" transform="translate(84.638857 0) scale(0.996264)"/>
     <use xlink:href="#CMSS17-30" transform="translate(157.506792 0) scale(0.996264)"/>
     <use xlink:href="#CMSS17-2e" transform="translate(204.350416 0) scale(0.996264)"/>
     <use xlink:href="#CMSS17-30" transform="translate(230.374621 0) scale(0.996264)"/>
     <use xlink:href="#CMSS17-30" transform="translate(277.218244 0) scale(0.996264)"/>
     <use xlink:href="#CMSS17-30" transform="translate(324.061868 0) scale(0.996264)"/>
     <use xlink:href="#CMSS17-29" transform="translate(370.905491 0) scale(0.996264)"/>
    </g>
   </g>
   <g id="text_11">
    <!-- $\frac{b}{\alpha} + \tau &gt; \frac{l-l_1}{v_T}$ -->
    <g transform="translate(305.246287 50.353743) scale(0.1 -0.1)">
     <use xlink:href="#CMMI12-62" transform="translate(7.421769 39.226102) scale(0.697382)"/>
     <use xlink:href="#CMMI12-b" transform="translate(0 -34.355253) scale(0.697382)"/>
     <use xlink:href="#CMR17-2b" transform="translate(67.211245 0) scale(0.996264)"/>
     <use xlink:href="#CMMI12-1c" transform="translate(161.065241 0) scale(0.996264)"/>
     <use xlink:href="#CMMI12-3e" transform="translate(242.230415 0) scale(0.996264)"/>
     <use xlink:href="#CMMI12-6c" transform="translate(346.972033 41.344728) scale(0.697382)"/>
     <use xlink:href="#CMSY10-0" transform="translate(368.845817 41.344728) scale(0.697382)"/>
     <use xlink:href="#CMMI12-6c" transform="translate(423.08681 41.344728) scale(0.697382)"/>
     <use xlink:href="#CMR17-31" transform="translate(443.426932 30.884032) scale(0.498132)"/>
     <use xlink:href="#CMMI12-76" transform="translate(372.435079 -34.355253) scale(0.697382)"/>
     <use xlink:href="#CMMI12-54" transform="translate(405.447331 -44.815949) scale(0.498132)"/>
     <path d="M 0 22.914133 
L 43.876524 22.914133 
L 43.876524 26.899083 
L 0 26.899083 
L 0 22.914133 
z
"/>
     <path d="M 346.972033 22.914133 
L 466.770302 22.914133 
L 466.770302 26.899083 
L 346.972033 26.899083 
L 346.972033 22.914133 
z
"/>
    </g>
    <!-- (p=0.000) -->
    <g transform="translate(310.431197 63.757443) scale(0.1 -0.1)">
     <use xlink:href="#CMSS17-28" transform="scale(0.996264)"/>
     <use xlink:href="#CMSS17-70" transform="translate(36.433914 0) scale(0.996264)"/>
     <use xlink:href="#CMSS17-3d" transform="translate(84.638857 0) scale(0.996264)"/>
     <use xlink:href="#CMSS17-30" transform="translate(157.506792 0) scale(0.996264)"/>
     <use xlink:href="#CMSS17-2e" transform="translate(204.350416 0) scale(0.996264)"/>
     <use xlink:href="#CMSS17-30" transform="translate(230.374621 0) scale(0.996264)"/>
     <use xlink:href="#CMSS17-30" transform="translate(277.218244 0) scale(0.996264)"/>
     <use xlink:href="#CMSS17-30" transform="translate(324.061868 0) scale(0.996264)"/>
     <use xlink:href="#CMSS17-29" transform="translate(370.905491 0) scale(0.996264)"/>
    </g>
   </g>
   <g id="text_12">
    <!-- Comparison of Predicted vs Actual Time Components -->
    <g transform="translate(178.637558 45.84) scale(0.14 -0.14)">
     <defs>
      <path id="CMSS17-43" d="M 3501 714 
C 3072 427 2874 344 2355 344 
C 1459 344 934 1303 934 2179 
C 934 3112 1472 4032 2381 4032 
C 2790 4032 3059 3918 3386 3715 
L 3475 4217 
C 3168 4370 2778 4440 2387 4440 
C 1158 4440 397 3316 397 2179 
C 397 927 1299 -64 2323 -64 
C 2874 -64 3066 -19 3539 280 
L 3501 714 
z
" transform="scale(0.015625)"/>
      <path id="CMSS17-6f" d="M 2829 1356 
C 2829 2176 2221 2816 1504 2816 
C 768 2816 173 2157 173 1356 
C 173 544 787 -64 1498 -64 
C 2227 -64 2829 563 2829 1356 
z
M 1504 337 
C 1050 337 659 709 659 1408 
C 659 2151 1114 2427 1498 2427 
C 1914 2427 2342 2126 2342 1408 
C 2342 683 1926 337 1504 337 
z
" transform="scale(0.015625)"/>
      <path id="CMSS17-61" d="M 2406 1791 
C 2406 2392 1978 2808 1402 2808 
C 1120 2808 813 2757 461 2553 
L 499 2135 
C 659 2248 934 2432 1395 2432 
C 1722 2432 1920 2180 1920 1782 
L 1920 1536 
C 896 1536 256 1238 256 726 
C 256 461 416 -64 947 -64 
C 1043 -64 1562 -64 1933 217 
L 1933 -19 
L 2406 -19 
L 2406 1791 
z
M 1920 816 
C 1920 701 1920 548 1728 434 
C 1562 325 1350 325 1261 325 
C 941 325 723 511 723 744 
C 723 1211 1722 1211 1920 1211 
L 1920 816 
z
" transform="scale(0.015625)"/>
      <path id="CMSS17-6e" d="M 2618 1877 
C 2618 2283 2522 2816 1798 2816 
C 1389 2816 1120 2606 941 2389 
L 941 2758 
L 474 2758 
L 474 0 
L 960 0 
L 960 1559 
C 960 1964 1114 2428 1549 2428 
C 2112 2428 2131 2048 2131 1829 
L 2131 0 
L 2618 0 
L 2618 1877 
z
" transform="scale(0.015625)"/>
      <path id="CMSS17-66" d="M 1075 2368 
L 1722 2368 
L 1722 2737 
L 1062 2737 
L 1062 3559 
C 1062 4014 1408 4092 1606 4092 
C 1670 4092 1850 4092 2080 4009 
L 2080 4429 
C 1933 4461 1754 4480 1613 4480 
C 1018 4480 602 3993 602 3359 
L 602 2737 
L 160 2737 
L 160 2368 
L 602 2368 
L 602 0 
L 1075 0 
L 1075 2368 
z
" transform="scale(0.015625)"/>
      <path id="CMSS17-50" d="M 2106 1856 
C 2874 1856 3501 2453 3501 3158 
C 3501 3850 2899 4453 2067 4453 
L 570 4453 
L 570 0 
L 1107 0 
L 1107 1856 
L 2106 1856 
z
M 1926 4096 
C 2669 4096 2995 3627 2995 3157 
C 2995 2720 2694 2226 1926 2226 
L 1094 2226 
L 1094 4096 
L 1926 4096 
z
" transform="scale(0.015625)"/>
      <path id="CMSS17-64" d="M 2611 4416 
L 2138 4416 
L 2138 2438 
C 1939 2603 1613 2756 1254 2756 
C 672 2756 211 2131 211 1347 
C 211 562 666 -64 1235 -64 
C 1677 -64 1971 172 2125 306 
L 2125 -13 
L 2611 -13 
L 2611 4416 
z
M 2125 836 
C 2125 747 2125 653 1926 482 
C 1798 375 1645 325 1498 325 
C 1152 325 698 576 698 1340 
C 698 2134 1210 2368 1562 2368 
C 1798 2368 1990 2254 2125 2065 
L 2125 836 
z
" transform="scale(0.015625)"/>
      <path id="CMSS17-76" d="M 2675 2752 
L 2176 2752 
L 1747 1556 
C 1613 1165 1421 627 1389 352 
L 1382 352 
C 1370 468 1318 634 1286 749 
C 1248 890 1197 1056 1158 1172 
L 595 2752 
L 83 2752 
L 1094 0 
L 1664 0 
L 2675 2752 
z
" transform="scale(0.015625)"/>
      <path id="CMSS17-41" d="M 2272 4416 
L 1722 4416 
L 166 0 
L 653 0 
L 1101 1280 
L 2816 1280 
L 3270 0 
L 3827 0 
L 2272 4416 
z
M 2694 1637 
L 1222 1637 
C 1530 2528 1914 3638 1958 3925 
L 1965 3925 
C 2010 3663 2138 3281 2246 2956 
L 2694 1637 
z
" transform="scale(0.015625)"/>
      <path id="CMSS17-75" d="M 2618 2739 
L 2131 2739 
L 2131 972 
C 2131 498 1786 306 1421 306 
C 998 306 960 447 960 709 
L 960 2739 
L 474 2739 
L 474 678 
C 474 179 646 -64 1088 -64 
C 1306 -64 1798 -13 2144 306 
L 2144 0 
L 2618 0 
L 2618 2739 
z
" transform="scale(0.015625)"/>
      <path id="CMSS17-6c" d="M 947 4416 
L 474 4416 
L 474 0 
L 947 0 
L 947 4416 
z
" transform="scale(0.015625)"/>
     </defs>
     <use xlink:href="#CMSS17-43" transform="scale(0.996264)"/>
     <use xlink:href="#CMSS17-6f" transform="translate(59.855772 0) scale(0.996264)"/>
     <use xlink:href="#CMSS17-6d" transform="translate(106.699395 0) scale(0.996264)"/>
     <use xlink:href="#CMSS17-70" transform="translate(180.92865 0) scale(0.996264)"/>
     <use xlink:href="#CMSS17-61" transform="translate(229.133593 0) scale(0.996264)"/>
     <use xlink:href="#CMSS17-72" transform="translate(271.453059 0) scale(0.996264)"/>
     <use xlink:href="#CMSS17-69" transform="translate(303.362832 0) scale(0.996264)"/>
     <use xlink:href="#CMSS17-73" transform="translate(325.543555 0) scale(0.996264)"/>
     <use xlink:href="#CMSS17-6f" transform="translate(361.457097 0) scale(0.996264)"/>
     <use xlink:href="#CMSS17-6e" transform="translate(408.30072 0) scale(0.996264)"/>
     <use xlink:href="#CMSS17-6f" transform="translate(487.734776 0) scale(0.996264)"/>
     <use xlink:href="#CMSS17-66" transform="translate(534.5784 0) scale(0.996264)"/>
     <use xlink:href="#CMSS17-50" transform="translate(594.434171 0) scale(0.996264)"/>
     <use xlink:href="#CMSS17-72" transform="translate(654.169758 0) scale(0.996264)"/>
     <use xlink:href="#CMSS17-65" transform="translate(686.07953 0) scale(0.996264)"/>
     <use xlink:href="#CMSS17-64" transform="translate(727.718352 0) scale(0.996264)"/>
     <use xlink:href="#CMSS17-69" transform="translate(775.923295 0) scale(0.996264)"/>
     <use xlink:href="#CMSS17-63" transform="translate(798.104018 0) scale(0.996264)"/>
     <use xlink:href="#CMSS17-74" transform="translate(839.742841 0) scale(0.996264)"/>
     <use xlink:href="#CMSS17-65" transform="translate(873.574407 0) scale(0.996264)"/>
     <use xlink:href="#CMSS17-64" transform="translate(915.213229 0) scale(0.996264)"/>
     <use xlink:href="#CMSS17-76" transform="translate(994.647285 0) scale(0.996264)"/>
     <use xlink:href="#CMSS17-73" transform="translate(1037.647427 0) scale(0.996264)"/>
     <use xlink:href="#CMSS17-41" transform="translate(1104.790082 0) scale(0.996264)"/>
     <use xlink:href="#CMSS17-63" transform="translate(1167.007937 0) scale(0.996264)"/>
     <use xlink:href="#CMSS17-74" transform="translate(1208.646759 0) scale(0.996264)"/>
     <use xlink:href="#CMSS17-75" transform="translate(1242.478325 0) scale(0.996264)"/>
     <use xlink:href="#CMSS17-61" transform="translate(1290.683268 0) scale(0.996264)"/>
     <use xlink:href="#CMSS17-6c" transform="translate(1335.605189 0) scale(0.996264)"/>
     <use xlink:href="#CMSS17-54" transform="translate(1389.015025 0) scale(0.996264)"/>
     <use xlink:href="#CMSS17-69" transform="translate(1452.834479 0) scale(0.996264)"/>
     <use xlink:href="#CMSS17-6d" transform="translate(1475.015202 0) scale(0.996264)"/>
     <use xlink:href="#CMSS17-65" transform="translate(1549.244456 0) scale(0.996264)"/>
     <use xlink:href="#CMSS17-43" transform="translate(1622.112391 0) scale(0.996264)"/>
     <use xlink:href="#CMSS17-6f" transform="translate(1681.968163 0) scale(0.996264)"/>
     <use xlink:href="#CMSS17-6d" transform="translate(1728.811786 0) scale(0.996264)"/>
     <use xlink:href="#CMSS17-70" transform="translate(1803.041041 0) scale(0.996264)"/>
     <use xlink:href="#CMSS17-6f" transform="translate(1853.848422 0) scale(0.996264)"/>
     <use xlink:href="#CMSS17-6e" transform="translate(1900.692046 0) scale(0.996264)"/>
     <use xlink:href="#CMSS17-65" transform="translate(1948.896989 0) scale(0.996264)"/>
     <use xlink:href="#CMSS17-6e" transform="translate(1990.535811 0) scale(0.996264)"/>
     <use xlink:href="#CMSS17-74" transform="translate(2038.740754 0) scale(0.996264)"/>
     <use xlink:href="#CMSS17-73" transform="translate(2072.572321 0) scale(0.996264)"/>
    </g>
   </g>
  </g>
 </g>
 <defs>
  <clipPath id="p68d6a5ee40">
   <rect x="81" y="51.84" width="502.2" height="332.64"/>
  </clipPath>
 </defs>
</svg>
